<?xml version="1.0" encoding="UTF-8"?>
<!DOCTYPE svg PUBLIC "-//W3C//DTD SVG 1.1//EN" "http://www.w3.org/Graphics/SVG/1.1/DTD/svg11.dtd">
<svg xmlns="http://www.w3.org/2000/svg" version="1.1" width="269px" height="56px" style="shape-rendering:geometricPrecision; text-rendering:geometricPrecision; image-rendering:optimizeQuality; fill-rule:evenodd; clip-rule:evenodd" xmlns:xlink="http://www.w3.org/1999/xlink">
<g><path style="opacity:0.835" fill="#00adee" d="M 50.5,4.5 C 51.7578,7.77222 52.9245,11.1056 54,14.5C 54.7218,17.2605 54.5552,19.9272 53.5,22.5C 49.789,14.9889 44.4557,13.6555 37.5,18.5C 33.2774,15.0324 28.9441,14.6991 24.5,17.5C 18.4959,20.1625 15.4959,24.8292 15.5,31.5C 14.1667,32.8333 14.1667,34.1667 15.5,35.5C 15.5,36.5 15.5,37.5 15.5,38.5C 7.89213,22.5034 12.2255,10.3367 28.5,2C 36.2749,-0.444158 43.6082,0.389176 50.5,4.5 Z"/></g>
<g><path style="opacity:0.839" fill="#187fc2" d="M 50.5,4.5 C 52.8614,5.43484 55.0281,6.76817 57,8.5C 63.4961,16.8875 65.1628,26.2209 62,36.5C 61.2082,39.1064 59.7082,41.1064 57.5,42.5C 51.1667,45.1667 44.8333,45.1667 38.5,42.5C 41.1438,40.031 43.9772,37.6976 47,35.5C 50.2322,31.7024 52.3988,27.369 53.5,22.5C 54.5552,19.9272 54.7218,17.2605 54,14.5C 52.9245,11.1056 51.7578,7.77222 50.5,4.5 Z"/></g>
<g><path style="opacity:0.547" fill="#39393b" d="M 245.5,7.5 C 248.167,7.5 250.833,7.5 253.5,7.5C 253.334,16.1731 253.5,24.8397 254,33.5C 255.049,35.1066 256.549,35.7733 258.5,35.5C 258.771,37.8211 258.104,39.8211 256.5,41.5C 253.554,42.6548 250.554,42.8214 247.5,42C 246.874,41.2496 246.374,40.4162 246,39.5C 245.5,28.8385 245.333,18.1719 245.5,7.5 Z"/></g>
<g><path style="opacity:0.444" fill="#39393a" d="M 180.5,8.5 C 183.5,8.5 186.5,8.5 189.5,8.5C 189.98,11.6852 189.314,14.5185 187.5,17C 189.452,25.23 190.118,33.73 189.5,42.5C 186.5,42.5 183.5,42.5 180.5,42.5C 180.666,33.4938 180.5,24.4938 180,15.5C 178.03,13.0367 178.196,10.7034 180.5,8.5 Z"/></g>
<g><path style="opacity:0.616" fill="#39393c" d="M 104.5,27.5 C 103.833,28.8333 103.167,30.1667 102.5,31.5C 101.962,35.9719 99.6291,39.1386 95.5,41C 87.5705,42.3633 79.5705,42.8633 71.5,42.5C 71.5,31.8333 71.5,21.1667 71.5,10.5C 80.6513,9.98341 89.6513,10.8167 98.5,13C 102.571,16.9763 104.571,21.8096 104.5,27.5 Z M 80.5,17.5 C 91.9144,16.5804 95.9144,21.5804 92.5,32.5C 88.7763,34.5472 84.7763,35.5472 80.5,35.5C 80.5,29.5 80.5,23.5 80.5,17.5 Z"/></g>
<g><path style="opacity:0.576" fill="#39393c" d="M 160.5,35.5 C 160.5,27.8333 160.5,20.1667 160.5,12.5C 162.279,10.6565 164.612,9.98983 167.5,10.5C 167.5,12.8333 167.5,15.1667 167.5,17.5C 171.167,17.5 174.833,17.5 178.5,17.5C 178.5,19.8333 178.5,22.1667 178.5,24.5C 174.833,24.5 171.167,24.5 167.5,24.5C 165.876,33.8806 169.542,37.2139 178.5,34.5C 178.5,37.1667 178.5,39.8333 178.5,42.5C 173.156,42.666 167.823,42.4994 162.5,42C 160.771,40.2111 160.104,38.0444 160.5,35.5 Z"/></g>
<g><path style="opacity:0.57" fill="#39393c" d="M 102.5,31.5 C 103.167,30.1667 103.833,28.8333 104.5,27.5C 110.112,14.876 118.779,12.376 130.5,20C 131.211,21.2547 132.044,22.4214 133,23.5C 135.307,40.1782 128.14,46.3449 111.5,42C 107.736,39.9745 105.903,36.8079 106,32.5C 104.989,31.6634 103.822,31.33 102.5,31.5 Z M 116.5,24.5 C 121.078,23.7285 123.745,25.5619 124.5,30C 120.821,37.4781 117.154,37.3114 113.5,29.5C 115.278,28.2742 116.278,26.6075 116.5,24.5 Z"/></g>
<g><path style="opacity:0.508" fill="#3b3b3c" d="M 160.5,12.5 C 160.5,20.1667 160.5,27.8333 160.5,35.5C 159.778,35.0825 159.278,34.4158 159,33.5C 158.502,30.5184 158.335,27.5184 158.5,24.5C 154.486,24.3345 150.486,24.5012 146.5,25C 143.594,28.6611 143.927,31.9945 147.5,35C 151.319,35.0694 154.986,35.2361 158.5,35.5C 158.5,37.8333 158.5,40.1667 158.5,42.5C 152.048,42.9155 145.715,42.4155 139.5,41C 136.583,38.1786 135.249,34.6786 135.5,30.5C 135.579,21.415 140.246,16.415 149.5,15.5C 152.741,15.4481 155.741,16.1148 158.5,17.5C 158.077,15.2188 158.744,13.5521 160.5,12.5 Z"/></g>
<g><path style="opacity:0.55" fill="#39393b" d="M 215.5,37.5 C 215.5,37.1667 215.5,36.8333 215.5,36.5C 215.5,32.1667 215.5,27.8333 215.5,23.5C 216.338,23.1583 216.672,22.4916 216.5,21.5C 218.315,18.5276 220.982,16.6943 224.5,16C 227.167,15.3333 229.833,15.3333 232.5,16C 233.949,17.117 235.616,17.7837 237.5,18C 243.358,23.4544 244.692,29.9544 241.5,37.5C 239.983,39.1851 238.316,40.6851 236.5,42C 231.167,42.6667 225.833,42.6667 220.5,42C 218.638,40.6343 216.972,39.1343 215.5,37.5 Z M 225.5,24.5 C 230.078,23.7285 232.745,25.5619 233.5,30C 232.69,34.7717 230.023,36.2717 225.5,34.5C 224.926,32.9411 224.26,31.4411 223.5,30C 224.464,28.2745 225.131,26.4412 225.5,24.5 Z"/></g>
<g><path style="opacity:0.843" fill="#57b85b" d="M 24.5,17.5 C 22.1554,21.3976 21.9887,25.3976 24,29.5C 27.759,35.0956 32.5923,39.4289 38.5,42.5C 44.8333,45.1667 51.1667,45.1667 57.5,42.5C 55.3472,46.8174 52.0139,49.9841 47.5,52C 32.5678,56.8735 21.9012,52.3735 15.5,38.5C 15.5,37.5 15.5,36.5 15.5,35.5C 15.5,34.1667 15.5,32.8333 15.5,31.5C 15.4959,24.8292 18.4959,20.1625 24.5,17.5 Z"/></g>
<g><path style="opacity:0.501" fill="#3a3a3c" d="M 216.5,21.5 C 216.672,22.4916 216.338,23.1583 215.5,23.5C 211.854,26.4775 208.188,30.1442 204.5,34.5C 208.204,35.2332 211.871,35.8998 215.5,36.5C 215.5,36.8333 215.5,37.1667 215.5,37.5C 215.5,39.1667 215.5,40.8333 215.5,42.5C 207.5,42.5 199.5,42.5 191.5,42.5C 191.183,39.4281 191.516,36.4281 192.5,33.5C 195.264,30.8457 197.931,28.0123 200.5,25C 197.518,24.502 194.518,24.3354 191.5,24.5C 191.5,22.1667 191.5,19.8333 191.5,17.5C 199.174,17.3336 206.841,17.5003 214.5,18C 215.085,19.3024 215.751,20.469 216.5,21.5 Z"/></g>
</svg>
